<?xml version="1.0" encoding="utf-8"?>
<!-- Generator: Adobe Illustrator 23.0.0, SVG Export Plug-In . SVG Version: 6.00 Build 0)  -->
<svg version="1.1" id="Lager_1" xmlns:serif="http://www.serif.com/"
	 xmlns="http://www.w3.org/2000/svg" xmlns:xlink="http://www.w3.org/1999/xlink" x="0px" y="0px" viewBox="0 0 841.9 595.3"
	 style="enable-background:new 0 0 841.9 595.3;" xml:space="preserve">
<style type="text/css">
	.st0{fill:#499C95;}
</style>
<g transform="matrix(1,0,0,1,-1525.86,-712.931)">
	<g transform="matrix(3.34131,0,0,3.34131,372.005,711.562)">
		<g transform="matrix(0.841508,0,0,0.841508,347.297,49.2171)">
			<path class="st0" d="M83.2,13.9c-1.6,0-3,1.3-3,3v122.3c0,1.6,1.3,3,3,3h127.9c1.6,0,3-1.3,3-3V16.8c0-1.6-1.3-3-3-3H83.2z
				 M211.1,147.4H83.2c-4.6,0-8.3-3.7-8.3-8.3V16.8c0-4.6,3.7-8.3,8.3-8.3h127.9c4.6,0,8.3,3.7,8.3,8.3v122.3
				C219.4,143.7,215.7,147.4,211.1,147.4"/>
		</g>
	</g>
	<g transform="matrix(3.34131,0,0,3.34131,372.005,711.562)">
		<g transform="matrix(0.841508,0,0,0.841508,-4107.25,-5690.68)">
			<path class="st0" d="M5487.2,6903.3h8.9v-8.9h-8.9V6903.3z M5496.4,6908.6h-9.6c-2.7,0-5-2.2-5-4.9v-9.6c0-2.7,2.2-5,5-5h9.6
				c2.7,0,5,2.2,5,5v9.6C5501.4,6906.4,5499.1,6908.6,5496.4,6908.6"/>
		</g>
	</g>
	<g transform="matrix(3.34131,0,0,3.34131,372.005,711.562)">
		<g transform="matrix(0.841508,0,0,0.841508,-4107.25,-5701.92)">
			<path class="st0" d="M5487.2,6893h8.9v-8.9h-8.9V6893z M5496.4,6898.3h-9.6c-2.7,0-5-2.2-5-5v-9.6c0-2.7,2.2-5,5-5h9.6
				c2.7,0,5,2.2,5,5v9.6C5501.4,6896.1,5499.1,6898.3,5496.4,6898.3"/>
		</g>
	</g>
	<g transform="matrix(3.34131,0,0,3.34131,372.005,711.562)">
		<g transform="matrix(0.841508,0,0,0.841508,-4107.25,-5713.18)">
			<path class="st0" d="M5487.2,6882.7h8.9v-8.9h-8.9V6882.7z M5496.4,6888h-9.6c-2.7,0-5-2.2-5-5v-9.6c0-2.7,2.2-5,5-5h9.6
				c2.7,0,5,2.2,5,5v9.6C5501.4,6885.7,5499.1,6888,5496.4,6888"/>
		</g>
	</g>
	<g transform="matrix(3.34131,0,0,3.34131,372.005,711.562)">
		<g transform="matrix(0.841508,0,0,0.841508,-4107.25,-5679.44)">
			<path class="st0" d="M5385.5,6913.6h8.9v-8.9h-8.9V6913.6z M5394.8,6918.9h-9.6c-2.7,0-5-2.2-5-5v-9.6c0-2.7,2.2-5,5-5h9.6
				c2.8,0,5,2.2,5,5v9.6C5399.7,6916.7,5397.5,6918.9,5394.8,6918.9"/>
		</g>
	</g>
	<g transform="matrix(3.34131,0,0,3.34131,372.005,711.562)">
		<g transform="matrix(0.841508,0,0,0.841508,-4107.25,-5668.2)">
			<path class="st0" d="M5385.5,6923.9h8.9v-8.9h-8.9V6923.9z M5394.8,6929.2h-9.6c-2.7,0-5-2.2-5-5v-9.6c0-2.7,2.2-5,5-5h9.6
				c2.8,0,5,2.2,5,5v9.6C5399.7,6927,5397.5,6929.2,5394.8,6929.2"/>
		</g>
	</g>
	<g transform="matrix(3.34131,0,0,3.34131,372.005,711.562)">
		<g transform="matrix(0.841508,0,0,0.841508,-4107.25,-5690.68)">
			<path class="st0" d="M5385.5,6903.3h8.9v-8.9h-8.9V6903.3z M5394.8,6908.6h-9.6c-2.7,0-5-2.2-5-4.9v-9.6c0-2.7,2.2-5,5-5h9.6
				c2.8,0,5,2.2,5,5v9.6C5399.7,6906.4,5397.5,6908.6,5394.8,6908.6"/>
		</g>
	</g>
	<g transform="matrix(3.34131,0,0,3.34131,372.005,711.562)">
		<g transform="matrix(0.841508,0,0,0.841508,-4107.25,-5701.92)">
			<path class="st0" d="M5385.5,6893h8.9v-8.9h-8.9V6893z M5394.8,6898.3h-9.6c-2.7,0-5-2.2-5-5v-9.6c0-2.7,2.2-5,5-5h9.6
				c2.8,0,5,2.2,5,5v9.6C5399.7,6896.1,5397.5,6898.3,5394.8,6898.3"/>
		</g>
	</g>
	<g transform="matrix(3.34131,0,0,3.34131,372.005,711.562)">
		<g transform="matrix(0.841508,0,0,0.841508,-4107.25,-5713.18)">
			<path class="st0" d="M5385.5,6882.7h8.9v-8.9h-8.9V6882.7z M5394.8,6888h-9.6c-2.7,0-5-2.2-5-5v-9.6c0-2.7,2.2-5,5-5h9.6
				c2.8,0,5,2.2,5,5v9.6C5399.7,6885.7,5397.5,6888,5394.8,6888"/>
		</g>
	</g>
	<g transform="matrix(3.34131,0,0,3.34131,372.005,711.562)">
		<g transform="matrix(0.841508,0,0,0.841508,-4107.25,-5679.44)">
			<path class="st0" d="M5410.6,6913.6h8.9v-8.9h-8.9V6913.6z M5419.8,6918.9h-9.6c-2.7,0-4.9-2.2-4.9-5v-9.6c0-2.7,2.2-5,4.9-5h9.6
				c2.7,0,5,2.2,5,5v9.6C5424.8,6916.7,5422.5,6918.9,5419.8,6918.9"/>
		</g>
	</g>
	<g transform="matrix(3.34131,0,0,3.34131,372.005,711.562)">
		<g transform="matrix(0.841508,0,0,0.841508,-4107.25,-5668.2)">
			<path class="st0" d="M5410.6,6923.9h8.9v-8.9h-8.9V6923.9z M5419.8,6929.2h-9.6c-2.7,0-4.9-2.2-4.9-5v-9.6c0-2.7,2.2-5,4.9-5h9.6
				c2.7,0,5,2.2,5,5v9.6C5424.8,6927,5422.5,6929.2,5419.8,6929.2"/>
		</g>
	</g>
	<g transform="matrix(3.34131,0,0,3.34131,372.005,711.562)">
		<g transform="matrix(0.841508,0,0,0.841508,-4107.25,-5690.68)">
			<path class="st0" d="M5410.6,6903.3h8.9v-8.9h-8.9V6903.3z M5419.8,6908.6h-9.6c-2.7,0-4.9-2.2-4.9-4.9v-9.6c0-2.7,2.2-5,4.9-5
				h9.6c2.7,0,5,2.2,5,5v9.6C5424.8,6906.4,5422.5,6908.6,5419.8,6908.6"/>
		</g>
	</g>
	<g transform="matrix(3.34131,0,0,3.34131,372.005,711.562)">
		<g transform="matrix(0.841508,0,0,0.841508,-4107.25,-5701.92)">
			<path class="st0" d="M5410.6,6893h8.9v-8.9h-8.9V6893z M5419.8,6898.3h-9.6c-2.7,0-4.9-2.2-4.9-5v-9.6c0-2.7,2.2-5,4.9-5h9.6
				c2.7,0,5,2.2,5,5v9.6C5424.8,6896.1,5422.5,6898.3,5419.8,6898.3"/>
		</g>
	</g>
	<g transform="matrix(3.34131,0,0,3.34131,372.005,711.562)">
		<g transform="matrix(0.841508,0,0,0.841508,-4107.25,-5713.18)">
			<path class="st0" d="M5410.6,6882.7h8.9v-8.9h-8.9V6882.7z M5419.8,6888h-9.6c-2.7,0-4.9-2.2-4.9-5v-9.6c0-2.7,2.2-5,4.9-5h9.6
				c2.7,0,5,2.2,5,5v9.6C5424.8,6885.7,5422.5,6888,5419.8,6888"/>
		</g>
	</g>
	<g transform="matrix(3.34131,0,0,3.34131,372.005,711.562)">
		<g transform="matrix(0.841508,0,0,0.841508,-4107.25,-5679.44)">
			<path class="st0" d="M5461.5,6913.6h8.9v-8.9h-8.9V6913.6z M5470.7,6918.9h-9.6c-2.7,0-5-2.2-5-5v-9.6c0-2.7,2.2-5,5-5h9.6
				c2.7,0,5,2.2,5,5v9.6C5475.7,6916.7,5473.5,6918.9,5470.7,6918.9"/>
		</g>
	</g>
	<g transform="matrix(3.34131,0,0,3.34131,372.005,711.562)">
		<g transform="matrix(0.841508,0,0,0.841508,-4107.25,-5668.2)">
			<path class="st0" d="M5461.5,6923.9h8.9v-8.9h-8.9V6923.9z M5470.7,6929.2h-9.6c-2.7,0-5-2.2-5-5v-9.6c0-2.7,2.2-5,5-5h9.6
				c2.7,0,5,2.2,5,5v9.6C5475.7,6927,5473.5,6929.2,5470.7,6929.2"/>
		</g>
	</g>
	<g transform="matrix(3.34131,0,0,3.34131,372.005,711.562)">
		<g transform="matrix(0.841508,0,0,0.841508,-4107.25,-5679.44)">
			<path class="st0" d="M5487.2,6913.6h8.9v-8.9h-8.9V6913.6z M5496.4,6918.9h-9.6c-2.7,0-5-2.2-5-5v-9.6c0-2.7,2.2-5,5-5h9.6
				c2.7,0,5,2.2,5,5v9.6C5501.4,6916.7,5499.1,6918.9,5496.4,6918.9"/>
		</g>
	</g>
	<g transform="matrix(3.34131,0,0,3.34131,372.005,711.562)">
		<g transform="matrix(0.841508,0,0,0.841508,-4107.25,-5668.2)">
			<path class="st0" d="M5487.2,6923.9h8.9v-8.9h-8.9V6923.9z M5496.4,6929.2h-9.6c-2.7,0-5-2.2-5-5v-9.6c0-2.7,2.2-5,5-5h9.6
				c2.7,0,5,2.2,5,5v9.6C5501.4,6927,5499.1,6929.2,5496.4,6929.2"/>
		</g>
	</g>
	<g transform="matrix(3.34131,0,0,3.34131,372.005,711.562)">
		<g transform="matrix(0.841508,0,0,0.841508,-4107.25,-5690.68)">
			<path class="st0" d="M5461.5,6903.3h8.9v-8.9h-8.9V6903.3z M5470.7,6908.6h-9.6c-2.7,0-5-2.2-5-4.9v-9.6c0-2.7,2.2-5,5-5h9.6
				c2.7,0,5,2.2,5,5v9.6C5475.7,6906.4,5473.5,6908.6,5470.7,6908.6"/>
		</g>
	</g>
	<g transform="matrix(3.34131,0,0,3.34131,372.005,711.562)">
		<g transform="matrix(0.841508,0,0,0.841508,-4107.25,-5701.92)">
			<path class="st0" d="M5461.5,6893h8.9v-8.9h-8.9V6893z M5470.7,6898.3h-9.6c-2.7,0-5-2.2-5-5v-9.6c0-2.7,2.2-5,5-5h9.6
				c2.7,0,5,2.2,5,5v9.6C5475.7,6896.1,5473.5,6898.3,5470.7,6898.3"/>
		</g>
	</g>
	<g transform="matrix(3.34131,0,0,3.34131,372.005,711.562)">
		<g transform="matrix(0.841508,0,0,0.841508,-4107.25,-5713.18)">
			<path class="st0" d="M5461.5,6882.7h8.9v-8.9h-8.9V6882.7z M5470.7,6888h-9.6c-2.7,0-5-2.2-5-5v-9.6c0-2.7,2.2-5,5-5h9.6
				c2.7,0,5,2.2,5,5v9.6C5475.7,6885.7,5473.5,6888,5470.7,6888"/>
		</g>
	</g>
	<g transform="matrix(3.34131,0,0,3.34131,372.005,711.562)">
		<g transform="matrix(0.841508,0,0,0.841508,-4107.25,-5679.44)">
			<path class="st0" d="M5436.5,6913.6h8.9v-8.9h-8.9V6913.6z M5445.7,6918.9h-9.6c-2.7,0-5-2.2-5-5v-9.6c0-2.7,2.2-5,5-5h9.6
				c2.7,0,5,2.2,5,5v9.6C5450.7,6916.7,5448.4,6918.9,5445.7,6918.9"/>
		</g>
	</g>
	<g transform="matrix(3.34131,0,0,3.34131,372.005,711.562)">
		<g transform="matrix(0.841508,0,0,0.841508,-4107.25,-5668.2)">
			<path class="st0" d="M5436.5,6923.9h8.9v-8.9h-8.9V6923.9z M5445.7,6929.2h-9.6c-2.7,0-5-2.2-5-5v-9.6c0-2.7,2.2-5,5-5h9.6
				c2.7,0,5,2.2,5,5v9.6C5450.7,6927,5448.4,6929.2,5445.7,6929.2"/>
		</g>
	</g>
	<g transform="matrix(3.34131,0,0,3.34131,372.005,711.562)">
		<g transform="matrix(0.841508,0,0,0.841508,-4107.25,-5690.68)">
			<path class="st0" d="M5436.5,6903.3h8.9v-8.9h-8.9V6903.3z M5445.7,6908.6h-9.6c-2.7,0-5-2.2-5-4.9v-9.6c0-2.7,2.2-5,5-5h9.6
				c2.7,0,5,2.2,5,5v9.6C5450.7,6906.4,5448.4,6908.6,5445.7,6908.6"/>
		</g>
	</g>
	<g transform="matrix(3.34131,0,0,3.34131,372.005,711.562)">
		<g transform="matrix(0.841508,0,0,0.841508,-4107.25,-5701.92)">
			<path class="st0" d="M5436.5,6893h8.9v-8.9h-8.9V6893z M5445.7,6898.3h-9.6c-2.7,0-5-2.2-5-5v-9.6c0-2.7,2.2-5,5-5h9.6
				c2.7,0,5,2.2,5,5v9.6C5450.7,6896.1,5448.4,6898.3,5445.7,6898.3"/>
		</g>
	</g>
	<g transform="matrix(3.34131,0,0,3.34131,372.005,711.562)">
		<g transform="matrix(0.841508,0,0,0.841508,-4107.25,-5713.18)">
			<path class="st0" d="M5436.5,6882.7h8.9v-8.9h-8.9V6882.7z M5445.7,6888h-9.6c-2.7,0-5-2.2-5-5v-9.6c0-2.7,2.2-5,5-5h9.6
				c2.7,0,5,2.2,5,5v9.6C5450.7,6885.7,5448.4,6888,5445.7,6888"/>
		</g>
	</g>
</g>
</svg>
